<mxfile host="Electron" modified="2023-09-16T12:17:43.007Z" agent="Mozilla/5.0 (Windows NT 10.0; Win64; x64) AppleWebKit/537.36 (KHTML, like Gecko) draw.io/21.6.8 Chrome/114.0.5735.289 Electron/25.5.0 Safari/537.36" etag="S4f1XSgoKQMNqKCvpAZT" version="21.6.8" type="device">
  <diagram name="Page-1" id="upqMAXRos51X-cC-QatG">
    <mxGraphModel dx="2268" dy="916" grid="1" gridSize="10" guides="1" tooltips="1" connect="1" arrows="1" fold="1" page="1" pageScale="1" pageWidth="850" pageHeight="1100" math="0" shadow="0">
      <root>
        <mxCell id="0" />
        <mxCell id="1" parent="0" />
        <mxCell id="m6LKSuRJi4lQtopCj_xe-1" value="" style="endArrow=classic;html=1;rounded=0;entryX=1.016;entryY=0.584;entryDx=0;entryDy=0;entryPerimeter=0;exitX=-0.003;exitY=0.637;exitDx=0;exitDy=0;exitPerimeter=0;dashed=1;" edge="1" parent="1" source="m6LKSuRJi4lQtopCj_xe-3" target="m6LKSuRJi4lQtopCj_xe-18">
          <mxGeometry width="50" height="50" relative="1" as="geometry">
            <mxPoint x="250" y="480" as="sourcePoint" />
            <mxPoint x="300" y="430" as="targetPoint" />
          </mxGeometry>
        </mxCell>
        <mxCell id="m6LKSuRJi4lQtopCj_xe-2" value="HTTPS Response" style="edgeLabel;html=1;align=center;verticalAlign=middle;resizable=0;points=[];" vertex="1" connectable="0" parent="m6LKSuRJi4lQtopCj_xe-1">
          <mxGeometry x="-0.6336" y="-2" relative="1" as="geometry">
            <mxPoint x="23" y="-7" as="offset" />
          </mxGeometry>
        </mxCell>
        <mxCell id="m6LKSuRJi4lQtopCj_xe-20" value="" style="endArrow=classic;html=1;rounded=0;entryX=0;entryY=0.5;entryDx=0;entryDy=0;exitX=0.98;exitY=0.485;exitDx=0;exitDy=0;exitPerimeter=0;" edge="1" parent="1" source="m6LKSuRJi4lQtopCj_xe-18" target="m6LKSuRJi4lQtopCj_xe-3">
          <mxGeometry width="50" height="50" relative="1" as="geometry">
            <mxPoint x="340" y="350" as="sourcePoint" />
            <mxPoint x="390" y="300" as="targetPoint" />
          </mxGeometry>
        </mxCell>
        <mxCell id="m6LKSuRJi4lQtopCj_xe-21" value="HTTPS Request" style="edgeLabel;html=1;align=center;verticalAlign=middle;resizable=0;points=[];" vertex="1" connectable="0" parent="m6LKSuRJi4lQtopCj_xe-20">
          <mxGeometry x="0.7577" y="3" relative="1" as="geometry">
            <mxPoint x="-11" y="-12" as="offset" />
          </mxGeometry>
        </mxCell>
        <mxCell id="m6LKSuRJi4lQtopCj_xe-3" value="" style="rounded=0;whiteSpace=wrap;html=1;align=right;fontSize=18;labelPosition=left;verticalLabelPosition=top;verticalAlign=bottom;horizontal=1;dashed=1;dashPattern=8 8;fillStyle=auto;fillColor=none;" vertex="1" parent="1">
          <mxGeometry x="150" y="140" width="510" height="280" as="geometry" />
        </mxCell>
        <mxCell id="m6LKSuRJi4lQtopCj_xe-4" value="TripService" style="rounded=0;whiteSpace=wrap;html=1;fillColor=default;strokeColor=default;" vertex="1" parent="1">
          <mxGeometry x="200" y="208" width="140" height="60" as="geometry" />
        </mxCell>
        <mxCell id="m6LKSuRJi4lQtopCj_xe-9" value="TripsMicroservice" style="text;html=1;strokeColor=none;fillColor=none;align=center;verticalAlign=middle;whiteSpace=wrap;rounded=0;" vertex="1" parent="1">
          <mxGeometry x="180" y="161" width="60" height="30" as="geometry" />
        </mxCell>
        <mxCell id="m6LKSuRJi4lQtopCj_xe-16" value="" style="sketch=0;outlineConnect=0;fontColor=#232F3E;gradientColor=none;fillColor=#232F3D;strokeColor=none;dashed=0;verticalLabelPosition=bottom;verticalAlign=top;align=center;html=1;fontSize=12;fontStyle=0;aspect=fixed;pointerEvents=1;shape=mxgraph.aws4.mobile_client;" vertex="1" parent="1">
          <mxGeometry x="-330" y="191" width="41" height="78" as="geometry" />
        </mxCell>
        <mxCell id="m6LKSuRJi4lQtopCj_xe-17" value="" style="outlineConnect=0;dashed=0;verticalLabelPosition=bottom;verticalAlign=top;align=center;html=1;shape=mxgraph.aws3.management_console;fillColor=#D2D3D3;gradientColor=none;" vertex="1" parent="1">
          <mxGeometry x="-341" y="300" width="63" height="63" as="geometry" />
        </mxCell>
        <mxCell id="m6LKSuRJi4lQtopCj_xe-18" value="" style="rounded=0;whiteSpace=wrap;html=1;align=right;fontSize=18;labelPosition=left;verticalLabelPosition=top;verticalAlign=bottom;horizontal=1;dashed=1;dashPattern=8 8;fillStyle=auto;fillColor=none;" vertex="1" parent="1">
          <mxGeometry x="-380" y="80" width="140" height="410" as="geometry" />
        </mxCell>
        <mxCell id="m6LKSuRJi4lQtopCj_xe-19" value="Client" style="text;html=1;strokeColor=none;fillColor=none;align=center;verticalAlign=middle;whiteSpace=wrap;rounded=0;" vertex="1" parent="1">
          <mxGeometry x="-341" y="110" width="60" height="30" as="geometry" />
        </mxCell>
        <mxCell id="m6LKSuRJi4lQtopCj_xe-24" value="" style="endArrow=classic;html=1;rounded=0;exitX=1;exitY=0.5;exitDx=0;exitDy=0;" edge="1" parent="1" source="m6LKSuRJi4lQtopCj_xe-4" target="m6LKSuRJi4lQtopCj_xe-37">
          <mxGeometry width="50" height="50" relative="1" as="geometry">
            <mxPoint x="360" y="230" as="sourcePoint" />
            <mxPoint x="547" y="330" as="targetPoint" />
            <Array as="points" />
          </mxGeometry>
        </mxCell>
        <mxCell id="m6LKSuRJi4lQtopCj_xe-37" value="NoSQL DB ServiceÂ &#xa;on Cloud" style="shape=image;verticalLabelPosition=bottom;verticalAlign=top;imageAspect=0;aspect=fixed;image=data:image/png,iVBORw0KGgoAAAANSUhEUgAAAgAAAAIACAMAAADDpiTIAAAAAXNSR0IArs4c6QAAAARnQU1BAACxjwv8YQUAAAMAUExURQB51gh92hCB2hiF2iCJ3iiN3jCR3jiV4kCZ4kid4lCh5lml5mGq5mmu6nG26nm66n266oW+7o3G7pXK7p3O8qXS8q7W8rba8r7e9sbi9s7m9tbq+t7u+uby+u72//b6/////wAAAAAAAAAAAAAAAAAAAAAAAAAAAAAAAAAAAAAAAAAAAAAAAAAAAAAAAAAAAAAAAAAAAAAAAAAAAAAAAAAAAAAAAAAAAAAAAAAAAAAAAAAAAAAAAAAAAAAAAAAAAAAAAAAAAAAAAAAAAAAAAAAAAAAAAAAAAAAAAAAAAAAAAAAAAAAAAAAAAAAAAAAAAAAAAAAAAAAAAAAAAAAAAAAAAAAAAAAAAAAAAAAAAAAAAAAAAAAAAAAAAAAAAAAAAAAAAAAAAAAAAAAAAAAAAAAAAAAAAAAAAAAAAAAAAAAAAAAAAAAAAAAAAAAAAAAAAAAAAAAAAAAAAAAAAAAAAAAAAAAAAAAAAAAAAAAAAAAAAAAAAAAAAAAAAAAAAAAAAAAAAAAAAAAAAAAAAAAAAAAAAAAAAAAAAAAAAAAAAAAAAAAAAAAAAAAAAAAAAAAAAAAAAAAAAAAAAAAAAAAAAAAAAAAAAAAAAAAAAAAAAAAAAAAAAAAAAAAAAAAAAAAAAAAAAAAAAAAAAAAAAAAAAAAAAAAAAAAAAAAAAAAAAAAAAAAAAAAAAAAAAAAAAAAAAAAAAAAAAAAAAAAAAAAAAAAAAAAAAAAAAAAAAAAAAAAAAAAAAAAAAAAAAAAAAAAAAAAAAAAAAAAAAAAAAAAAAAAAAAAAAAAAAAAAAAAAAAAAAAAAAAAAAAAAAAAAAAAAAAAAAAAAAAAAAAAAAAAAAAAAAAAAAAAAAAAAAAAAAAAAAAAAAAAAAAAAAAAAAAAAAAAAAAAAAAAAAAAAAAAAAAAAAAAAAAAAAAAAAAAAAAAAAAAAAAAAAAAAAAAAAAAAAAAAAAAAAAAAAAAAAAAAAAAAAAAAAAAAAAAAAAAAAAAAAAAAAAAAAAAAAAAAAAAAANYLBa4AAAAhdFJOU///////////////////////////////////////////AJ/B0CEAAAAJcEhZcwAAXEYAAFxGARSUQ0EAABcySURBVHhe7Z3pYqs4DEazl+xkp9ng/Z9ySKreSdrQCFsG2f7Ov5kLiQsntixvnQJETSQCXLMsO6TfzJKXzOif07S8+pPuDJ1QBThm2aZ8k7dXPeyY0ivvnpafsi2FoM8NjrAEKH/oq/Klf9ALlGVUVhHr4EwIQoBLtkvTJOnTm3LNqKwWVlmW07f7jecClG9+ktB7aZxeMk+zE5XEV3wV4HhI50mP3kS7jMZlkOBtdeCfAJ/bZTKgZ6+Ie3VwpTJ6hFcCZOu5m/hOjMHENws8ESDPVtMRPWT1eGWBfgGuWTpRWOW/wxcLdAtw2S+8+d2/YjDbXuhP0YpeAS67uXkOTxHD+U6zBDoFOG9nHtb61YwWe63NgT4BzptpUym9RhktDhqTBcoE+FwGUe1X8bFWlzhUJMB1Nwvyp//MYKFrOEmLAOf1mJ5Q+PRmOz2NgQoBPhdBV/yvmGyUdA3aFyCb6RjTaZxRqiEgaFmA0yKo7l5dhuvW64E2Bbiso6v5fzPethsPtCbAddvaRA5ldGdt9gtaEmA/7dKfD0oGy9bCgTYEOC8jDfv+YtRSt6B5AT6n9CeDZ7qzNqqBpgXYej2865rxgR5TczQqwCVtM9c7uq3+WdxX/nyxz4g9/Y8by9tV7U08GzbdKWhQgNOs2cDvtq5n+bWsx2gsNic1yo9p0tvestFgoDEB9g31+gbJ5La270xfK8Y1y9bpLGmkBZsd6UsboCEBMucP7uP+3huYdlFWDKt0mritzZLGUgONCJC5/PV/jNNN1kIXKs92Lj1IGlqe3IAAxwn9TcJ0k0Urb/6ZPNsu3SxRmjTSEDgX4Oyi2z8Yp3tVc2suWTqVH9iYiUcyv3EswGVGf4sYg+la7UK8bDMXjnUWzms4pwJcF7JNZLLct17lvyM/pJKBQTd1HNe6FGAr2H3uT1Yebc1w3EzF5jn0Vk4rPHcCHOXSaeN1gx1jKc6biVBNMHSpvisB8gWV3pahzun0PD6XMjHB1F3L50iAT5GQuDvdNBAHu+Wyk5jz2FvTx4njRIB8SeW2oTdVNHnajr3AgocPR5WACwEEfv692Z4+LBCyua0DvS19lCwOBFjbxj7deWBv/4tsbtkWjF1UAuICXG0Tv8OND/sqGJFv7XpGfQfdAWkBPu36v91Z4Fu0nuyqgRV9jBzCAuysqv+Af/z/Y1cNTKSfkKwAVtH/KMiW/xU2w+MD4ZyYpAC5zcBfPK//hoUCPdkHJSjA1SLrFdfrv2GhgGggICeAxfvvR/f6b2TG6ZKpYIZMTICzefg/jyD0e8nKNGQeyxkgJYD5+x/GcjbHC06m26LIGSAkwNW0OuvK92y9wnTOhJgBMgLkpl3bgbpds5rmavjoJnS/LTICmKZ/k1hb/wfyOT2MmszpfktEBDCd/DEPZbzXjjU9jpqkdLsdEgLsqUR12dD90XMwGx/Y0e1WCAhwNhzewPv/x6dRf7ArEUDZC5AbJoCWdD8o2dFDqcdQoAm1F2BFpamJVBQbCGZPcUF3W2AtwNksm/WB+O8ZsyVU9juKWAtg2AP0cKK/W3KjjNDA+ndkK4BhDwANwC/MOoPWkZStAIaDmqgAfmFWBXRtn6SlAEcqR01QAbzArAqwfZSWAhhGAFGO/7/jTA+nJpZVgJ0AFypEXaIfAnqJWULNsgqwE2BDhahJl24HTxiOC9otn7QTwDAE/KDbwROGw4J2MyqsBDBtAaZ0P3gipcdTE7ufk5UApsOAI7ofPGFYA9i1AVYCGCqLGOA1ptOqrJYNWwlgvA4UvYBXmK4atBoSshLAeCYw8gAvMI2o7FpUKwGM9zxAJvAFhjPDLFtUKwGoAAZgLOAXZmMBd2ym1toIkNP3G4Aq4BfGFYBdN8BGAMPk9R1UAT+xWFprs7aqLQEGWBHwjGFW/Y7NzjFtCdBJMCfskcxmaxUvBUA++BHTqfVf+CmA0MqWIDCdWk94KoDEpOYwyE1XiRO+CiC/5ZWfXGy2DbvhrQCdofd7QQtwtD5awF8BOj2bsofB3mprxTseCxDxBkFf5IYr657wWoBOX2SVs6fInKvgtwCdzjjWSOAqdKaa7wJ0um7PRdLKznz87xnvBSjbgXV0CgiepxuAANEpIHqcchACRKWA6OsPRoBOpzePYrboQfb1ByRAyUfoncLLyjrx94uQBChbgmXAvcK9i7PUAxOgZLwNMj14Xkr1+34QnAAlk9AcOK3txvz/IkQBSgJy4JSKpHyrCFSAkvEqgNnDR7dvvyRcAUr6063HQeF5M7Wa7ccjaAFuDBd7D3NE191cvsf3kuAFuDFa7DyqCc67hbuY7xdRCHCjP1l5cMBQtpo46u5VEY0Ad5LlVq0Fp93CdoKnCXEJcOdjtspUdRIvWTpr493fiVCAO/0k3bavwSVbLxL7iZ02xCoAkUza8eCUrdOktV/9I5ELQCTjND1kFyqbQ47ZLl0mrpM7dYAAj/S/TMiEMweXrPzBzxPpoXwRIEAFg6RsHu42ZPVTyqfyrqy8e5YkLTfxb4EATHrlu7wrUcnkdoWKdr0OECByIEDkQIDIgQCRAwEiBwJEDgSIHAgQORAgciBA5ECAyIEAkQMBIgcCRA4EiBwIEDkQIHIgQORAgMiBAJEDASIHAkQOBIgcCBA5ECByIEDkQIDIgQCRAwEiBwJEDgSIHAgQORAgciBA5ECAyIEAkQMBIgcCRA4EiBwIEDkQIHIgQORAgMiBAJEDASIHAkQOBIgcCBA5ECByIEDkQIDIgQCRAwEiBwJEDgSIHAgQORAgciBA5ECAyIEAkQMBIgcCRA4EiBwIEDkQIHIgQORAgMiBAJEDASIHAkQOBIgcCBA5ECByIEDkQIDIgQCRAwEiBwJEDgSIHAgQORAgciBA5ECAyIEAkQMBIidOAUZJkizTG+ssy8b0f6MkLgH6SZoespzK8M2M/rVJ+qWCyZD+o02iEWAwTbMrffkP2hBgRt9dFMcsW6fzpE//0DRRCNCbbE70va9oV4B/ZPs06dI/N0f4AnSnB/rOKpQIcOe4mQ3okmYIXYDRpqLef0CTADdO6w+6qgHCFmC0p6/7E20ClFy3TXVNQhZgsKMve4NCAUou60Y6CQELsPjZ3atCpwAl+4SudkiwAvTfhX7/o1aAsmfgXIFQBUgu9EUMFAtQFAfHnYJABVjQ17BQLUCRp06TA0EK0GVGf4RuAYri2KObXBCiAF1+839HuwBODQhRgC19Bxf1AhRnd4FAgAKk9BVs9AtQnJzVAeEJ8EHfwMcDAYqDq0gwOAG6f437vcYHAYoN3ShNcALUbgA8EcBVKUMToM/N/z7ghwBXN1NGQhNgTZ9fBz8EKA50qyyBCWBSAfgigJtyBibAij6+Fr4IcHHREwhLgG6NIaD/8UWAYkE3SxKWAGP69Hp4I4CLKiAsAeomgb/wRgAXVUBYAhi1AB4J4KAKCEqA+lngO/4IUEzodjmCEsAgC3jDIwH2dLscQQnAmgT+G48EyMXTgUEJcKYPf8dhcVuamaRpuspaWh1sKEAxp/vFCEmAHn32Gy4aFuWSAJebgFnGNddBGxCSAMwsQAOT7d/TT57WA08+qXDvuNINYoQkwJI++29cDazb0eUaMKIbpAhJAN5IYIMLL+vQZ+YwpHNBIQnAmgyeO51lbwGzDysdBIQkAKsW/aSL1TGkAr7hQpdLEZIArFjazbQKCZiTGYVrsJAEoI/+my1drA/mcibhKDAgAQb00X+jVwDmbLYpXS4EBFADMwpc0uVCRCdASlfrgymAsMEQQA0QwBLebAAI8ExAAiT00X/jvQAZXS4EBFADBLAEApgAAdQAASyBACZAADVAAEsggAkQQA0QwBIIYAIEUAMEsAQCmAAB1AABLIEAJkAANUAASyCACRBADRDAEghgAgRQAwSwBAKYAAHUAAEsgQAmQAA1QABLIIAJEEANEMAS3wXg7XADASrxXQDmznEQoAoIYAIEUAMEsAQCmAAB1DClEr4BAlTBe4B6BeAJXBzpciECEoBXhQrvsCIIUwDhJxedAG3sDc8DAljCy6S1sTc8D94WNxCgEq+3Cr5BJXwHXS1EQALw9tse0NUKYW4XLbtVaDgCdHmnxmrdK7rkSEV8g+x5B+EIwNskLKerNcI88ki2IxuOALwQ4ERXa2RDZXyD7HbXwQjQ47UA8ueuycEcD76KtmLBCLCgD37Dii7XCPfkY9G/IRQBxrwKQHqvbVGYp57JHh4YiAAz5vsXP3NJFO7pcUfBvmwQAkz4f4XiXmCNk08vcvlMvwUYJsk0PfCPXZQeShOGOS30xmUzS0RqM18FYCbOf6J3MPgGNwr8ic0G4pEJoHgkoKTLTAb/BAJwkT5zTRpmKugnEICL8GEL4jCnBPwEAnDROxmAqBHPPgABmOjuA9xYUUnrAQGYqK8AOn1uQusJCMBD80DQN8whjWcgAA/VaWDCqCcIAVjonRD+CHN5yBMQgIPNU2qSA5W3BhCAQaZ6GOiBLm9y6yMQ4D2fPbpRP70TlZkNBHjLypff/41B3XQQBHiD4PB5I/RrxgEQ4E+ua8kpVM2wrJUQggB/cJz5VPv/Y8hcJXIHAlTjWeX/wMeWXQtAgGqGdL2P9ObMtCAEqOa68LIFILb0V7wBAvzFZU63+Ac3EIAAf3P2YRToN92UGwRAgDdcfQwFx/yEIAR4R+6dAd0dFZ0DBHhLrndvqJf0auUCIQAD2X01HNOrkwaCACzOHnUHBzXHAyEAhw3dqZ9u3fFgCMDCm0CQmf75HwjA4uJJI8DcNfwBCMDDj5Tg4ErF5QMBeOhfGHSj/pRACMDFh67ghMpaBwjAxIelQfUyAF9AAC7654aZVAAQgM2C7tYLe5+oR2IUoJuUjNM0zeoEzerbgBEVtB4xCvDAcM2ePHelW9RSd4+Yz+yGzarHAATodPrs56Z9agh/SchlPROZ7xiEAPwd9pQHAbwt70uuS6m0ZiACcPdWUR4EcD0+y+0VG4oAzI0VlO8Tx0wCXLFX8G+Ye6uoHhDi9m0lM5rBCMCsAlRHgXMq5BtExzSCEYDZfk7oapXwTr2RjWTDEYC3y6bqjYJ4M0Fz0b0uwhGAd2yc6olhvFZM9vjwcATghdDCh6+LwjwyBsfGVcBaSuHge8VgpoFkjz0KSABWFKj54EhmJ0C2IxOQALznRxdrhJnNlE1lBCQAb49NxYdHM6eD09VCBCQArx+oWADeuxDOZkcngOKJobyRAOEnF50AitcH8dIAEKAKngCK14lTCd8AAargCaB3SghzLFB4eUt0Aug9OpKZBxLOZUIANfDKDwEqgQAmQAA1ME8OhgBV+C4Ac18ACFAFBDABAqgBAlgCAUyAAGqAAJb4LgBzPggEqMJ3AZjrwiBAFRDABAigBghgCQQwAQKoAQJYAgFMgABqgACWQAATIIAaIIAlEMAECKAGCGAJBDABAqgBAlgCAUyAAGqAAJZAABMggBoggCUQwAQIoAYIYAkEMAECqAECWAIBTIAAaoAAlkAAEyCAGiCAJbwz9yDAMwEJwNtkCQI8AwHUAAEsiUQAm3NiXwAB1AABLOEduKH3zBgIYAvr0CDh5ycIUwDhKiwkAVgnL3svgPBetyEJwPpbvBdA9sigoATY02f/id7jo5kCCB94EJIAG/rsPxHuRgvCFGBIlwsRkgCsJ3iii/XBPDJI9NzQsATgbbMl/ADlYJ17WFzpailCEoC34b7aQ4NOVMC/+aSrpQhJAL8zQV0q3xukix+SALxTl/I+Xa2MCZXvDdJH3gQlAO/49R1drQxWJ1b+1LOgBFjTh79BZRTAPDGokK6/ghKAudvuRWNHgHdqpHgnICwBmAevaWwEmFkg+URmUALwhoNK1B0eyJvQWiJe8rAEYCbTimJONyghuVK53jKiO8QISwDmmQsluw+6RQHdFRXqPeIhQGACcIOAG6dZouIo+d6clwK8Iz+UFZYA3Fj6H+espMUDxQeTLWse0zdLuk+OwARY0MfXoo0DxUdpScZu+r+Rz2IGJkC/1u+JaEMAfrTyyIHuFiQwAbgJ1Sf8EcBBSUMTgDmk8oQ3AuRduluQ0ASoHQaWeCOAiwmtwQlgUAV4I4B4FqgkOAEMqgBfBHAyoTk8AepXAb4I4KICCFCAzid9BRtPBHCzoiFAAQZ1cwF+CJALLwggAhSg9sP1QwD5LPCdEAWomw3yQgDp6eDfBClAr15PwAcBHDUAgQpQ0wAfBHBWxjAFqGeABwKs6DZ5AhWg06sRB+gXwOEs1lAF6HTm7N6gegEODgaBvglXgM6QmxHSLoCjDuAXAQtQVgKsxYLKBTi5nb4atACd3orTDmgWIF85XsYUtgCdTn/1vhZQLMDe+cTl0AXodLqzd9Ou1QpwaGAZa/gClIzWf64Z0ylAvnGV/HsiCgFKhml1akijAMd5Q0uYYxGgpJukh5cxoToBDvPmdjGJSIA7w2S5zn7EhaoEyFaTRrcviE0Aop8k8zS9rQtraWnYCwEu2WbR/JLVSAVonf8FuGTZNk3Hba1WhgDtUFZBSaJhiToEiBwIEDltCZDT94OWaUuAgr4ftExrAqjYngWYLKb9h5UAjSS6wVu4O+u9wkqACRUAtEvtXWoesBLA3TxXUAPmJvWvsRJA79k9UcHdo/olVgJcHc50BWyMtlX7xkoA8Y3vgQnszXVfYSeA3hMcY8KmE2ApANoABViFAJYCoCOoAP421a+wFOBIhQDtYdUC2AqAKqB1TLbVfMBWAFQBbcM7Zq0SWwH0ndwSGSN6D6ZYC5BjSLBVTHbWfsRaABfbnwM27JOqqrAXoJUp+eCLrs1UgDsCAjjb/Aq8xWoY4I6AAMUR+cCWGJocrvKMhADFmsoDmqVb46yyKkQEQF+wHayGAQkZAZAQbIN3y9NZCAmQqzzOPWwS+wCgREiA4urkJARQzdBmKuj/SAkAAxqmbzcI+A8xAYoc88MapOZm6tXICQADGqQv9f4lBVB3on+4DITq/xJRAZARagbB9y8sQHFodHOkSPmQif+/EBagOGFkyDVTkf7/N9ICFPmUygncsKQHLYS4AEWxweCgO+qcosLCgQDFJ5oBV3wIhn9fuBCgyJ2ejxExC9Hm/44TAcreQHMb5cZD33IG+EscCVBcMVNQmplk7+8frgRAJCCMk59/iTsBisL1UTkx4ebnX+JSgOKCiUIyjLin59XHqQBlO4CZQvb01vQ0XeBYgKLIMFHEEubJiYY4F6Ao9ogGLZiKp36eaUCAothiAakhE7GJH1U0IkCRr5EYMiBxF/v9oxkBSgVS9Alr8mGzCTibpgQoFdigIajBSHrYr4LmBCjZo1PIJGno9TcsQFEcMUTwnvcnJQvSsABFcVkiGPiTwdpV1vcljQuAYOBPxo7GfCppQYCSPSYOvqI3d5z1eUE7AhTFdaPhxEVVjDby833e05YAJeclmoJ/DJYNBn6PtChASTZDRFjSnzeQ8qugXQHKiHAX+5LS7rSxPv8r2hag5LKOOByYbNto+B9QIEDJZTuJcTXJeON0qJ+FDgFu7OdRjRj2Z7tGEz5V6BGg5LiMZO7Ix8r5OD8XVQKUnNehDxj1plsVP31CmwAl1/0i2HmEo2V7Hb7XKBTgRogSfCz2mn76hFIBboQkQZJmLXf3qlAswI0AJOiNV9qq/UeUC3DjekjHnvYQB9O1mnC/Ag8EuHPxzYLRdJUpbPJ/4YsAdzyxIFlsNFf6z3glwJ3SgkRrXNBP0l1Lw7qm+CfAF6csnSeKxpKTSbr1osr/ia8CfJFn23TcanXQTabpzss3T/gtAFFWB+k0aXYcYXR/80o79zUIQoBv8ixbuTVhkIzT8r1r79vVICgB/nE3oQwSkkRg2mG//JhJmm6yRtbqNU2YAjxzyrJsnabpuHyTdyqriAFdkCzKy3flbc1P026aGAQAlRTFf/35S10ADsaDAAAAAElFTkSuQmCC" vertex="1" parent="1">
          <mxGeometry x="527" y="192" width="76" height="76" as="geometry" />
        </mxCell>
        <mxCell id="m6LKSuRJi4lQtopCj_xe-44" value="" style="endArrow=classic;html=1;rounded=0;exitX=1;exitY=0;exitDx=0;exitDy=0;entryX=0;entryY=0.5;entryDx=0;entryDy=0;" edge="1" parent="1" source="m6LKSuRJi4lQtopCj_xe-4" target="m6LKSuRJi4lQtopCj_xe-43">
          <mxGeometry width="50" height="50" relative="1" as="geometry">
            <mxPoint x="347" y="230" as="sourcePoint" />
            <mxPoint x="527" y="230" as="targetPoint" />
            <Array as="points" />
          </mxGeometry>
        </mxCell>
        <mxCell id="m6LKSuRJi4lQtopCj_xe-43" value="Cache Cloud&lt;br&gt;Service&lt;br&gt;" style="outlineConnect=0;dashed=0;verticalLabelPosition=bottom;verticalAlign=top;align=center;html=1;shape=mxgraph.aws3.cache_node;fillColor=#2E73B8;gradientColor=none;" vertex="1" parent="1">
          <mxGeometry x="467" y="30" width="60" height="63" as="geometry" />
        </mxCell>
        <mxCell id="m6LKSuRJi4lQtopCj_xe-45" value="TripUpdateService" style="rounded=0;whiteSpace=wrap;html=1;fillColor=default;strokeColor=default;" vertex="1" parent="1">
          <mxGeometry x="200" y="330" width="140" height="60" as="geometry" />
        </mxCell>
        <mxCell id="m6LKSuRJi4lQtopCj_xe-46" value="" style="endArrow=classic;html=1;rounded=0;entryX=0.5;entryY=1;entryDx=0;entryDy=0;entryPerimeter=0;exitX=1;exitY=0.5;exitDx=0;exitDy=0;" edge="1" parent="1" source="m6LKSuRJi4lQtopCj_xe-45" target="m6LKSuRJi4lQtopCj_xe-43">
          <mxGeometry width="50" height="50" relative="1" as="geometry">
            <mxPoint x="347" y="340" as="sourcePoint" />
            <mxPoint x="397" y="290" as="targetPoint" />
            <Array as="points">
              <mxPoint x="497" y="360" />
            </Array>
          </mxGeometry>
        </mxCell>
        <mxCell id="m6LKSuRJi4lQtopCj_xe-47" value="Invalidate Cache" style="edgeLabel;html=1;align=center;verticalAlign=middle;resizable=0;points=[];" vertex="1" connectable="0" parent="m6LKSuRJi4lQtopCj_xe-46">
          <mxGeometry x="-0.2005" y="-1" relative="1" as="geometry">
            <mxPoint as="offset" />
          </mxGeometry>
        </mxCell>
        <mxCell id="m6LKSuRJi4lQtopCj_xe-48" value="" style="endArrow=classic;html=1;rounded=0;exitX=0.5;exitY=1;exitDx=0;exitDy=0;exitPerimeter=0;entryX=1;entryY=1;entryDx=0;entryDy=0;" edge="1" parent="1" source="m6LKSuRJi4lQtopCj_xe-43" target="m6LKSuRJi4lQtopCj_xe-4">
          <mxGeometry width="50" height="50" relative="1" as="geometry">
            <mxPoint x="260" y="320" as="sourcePoint" />
            <mxPoint x="350" y="260" as="targetPoint" />
          </mxGeometry>
        </mxCell>
        <mxCell id="m6LKSuRJi4lQtopCj_xe-52" value="ThirdPartyAndEmail&lt;br&gt;IntegrationMicroservice" style="rounded=0;whiteSpace=wrap;html=1;fillColor=default;strokeColor=default;" vertex="1" parent="1">
          <mxGeometry x="202" y="540" width="150" height="60" as="geometry" />
        </mxCell>
        <mxCell id="m6LKSuRJi4lQtopCj_xe-54" value="" style="endArrow=classic;html=1;rounded=0;exitX=0.5;exitY=0;exitDx=0;exitDy=0;entryX=0.25;entryY=1;entryDx=0;entryDy=0;" edge="1" parent="1" source="m6LKSuRJi4lQtopCj_xe-52" target="m6LKSuRJi4lQtopCj_xe-3">
          <mxGeometry width="50" height="50" relative="1" as="geometry">
            <mxPoint x="100" y="460" as="sourcePoint" />
            <mxPoint x="150" y="410" as="targetPoint" />
          </mxGeometry>
        </mxCell>
        <mxCell id="m6LKSuRJi4lQtopCj_xe-55" value="Push data updates&amp;nbsp; &lt;br&gt;for trips" style="edgeLabel;html=1;align=center;verticalAlign=middle;resizable=0;points=[];" vertex="1" connectable="0" parent="m6LKSuRJi4lQtopCj_xe-54">
          <mxGeometry x="0.0462" y="2" relative="1" as="geometry">
            <mxPoint y="1" as="offset" />
          </mxGeometry>
        </mxCell>
        <mxCell id="m6LKSuRJi4lQtopCj_xe-58" value="CDN" style="rounded=0;whiteSpace=wrap;html=1;fillColor=default;strokeColor=default;" vertex="1" parent="1">
          <mxGeometry x="-181" y="80" width="60" height="410" as="geometry" />
        </mxCell>
        <mxCell id="m6LKSuRJi4lQtopCj_xe-59" value="API Gateway" style="rounded=0;whiteSpace=wrap;html=1;fillColor=default;strokeColor=default;" vertex="1" parent="1">
          <mxGeometry x="-51" y="80" width="60" height="410" as="geometry" />
        </mxCell>
        <mxCell id="m6LKSuRJi4lQtopCj_xe-60" value="" style="sketch=0;outlineConnect=0;fontColor=#232F3E;gradientColor=none;fillColor=#B0084D;strokeColor=none;dashed=0;verticalLabelPosition=bottom;verticalAlign=top;align=center;html=1;fontSize=12;fontStyle=0;aspect=fixed;pointerEvents=1;shape=mxgraph.aws4.shield_shield_advanced;" vertex="1" parent="1">
          <mxGeometry x="-168.82" y="106.72" width="32.82" height="36.57" as="geometry" />
        </mxCell>
        <mxCell id="m6LKSuRJi4lQtopCj_xe-61" value="" style="outlineConnect=0;dashed=0;verticalLabelPosition=bottom;verticalAlign=top;align=center;html=1;shape=mxgraph.aws3.cache_node;fillColor=#2E73B8;gradientColor=none;" vertex="1" parent="1">
          <mxGeometry x="-171" y="176.72000000000003" width="40" height="40.01" as="geometry" />
        </mxCell>
        <mxCell id="m6LKSuRJi4lQtopCj_xe-62" value="Security" style="text;html=1;strokeColor=none;fillColor=none;align=center;verticalAlign=middle;whiteSpace=wrap;rounded=0;" vertex="1" parent="1">
          <mxGeometry x="-181" y="80" width="60" height="30" as="geometry" />
        </mxCell>
        <mxCell id="m6LKSuRJi4lQtopCj_xe-63" value="Caching" style="text;html=1;strokeColor=none;fillColor=none;align=center;verticalAlign=middle;whiteSpace=wrap;rounded=0;" vertex="1" parent="1">
          <mxGeometry x="-181" y="150" width="60" height="30" as="geometry" />
        </mxCell>
        <mxCell id="m6LKSuRJi4lQtopCj_xe-64" value="Security" style="html=1;whiteSpace=wrap;strokeColor=none;fillColor=#0079D6;labelPosition=center;verticalLabelPosition=middle;verticalAlign=top;align=center;fontSize=12;outlineConnect=0;spacingTop=-6;fontColor=#FFFFFF;sketch=0;shape=mxgraph.sitemap.security;" vertex="1" parent="1">
          <mxGeometry x="-46" y="106.72" width="50" height="30" as="geometry" />
        </mxCell>
        <mxCell id="m6LKSuRJi4lQtopCj_xe-65" value="" style="shape=image;verticalLabelPosition=bottom;labelBackgroundColor=default;verticalAlign=top;aspect=fixed;imageAspect=0;image=data:image/png,iVBORw0KGgoAAAANSUhEUgAAAQMAAADCCAMAAAB6zFdcAAAA9lBMVEX///8AK1D///0AK0////sAGzr8///x+voAKVD///oAK1MALFMBKlD1//8AK00ALFEAFD+Wp7AaOVUJLEiEkp0AH0AAHUkAF0AAACwAJ0+cqa/T4eIAK1a9ztXp9PQAADRrfokACjwAAC4AI0sADTYAIUoACkAAAC0ACjgAIjwAJ0YAEj8AI0cAHEG8y9IAACU3T2E8UVwAAAAAGEUAHTtic4SotrwAFTlEW2+ktMB3iZTc6e0AACMhOU0AFkhUZ3wwRV0vRlZcbHZDWnK4wMVrgZJHXXUyTGaNorR/kJtSY3CFi5UTKUEMMlCRm6Ftd4HG2uN2hZdtB+F1AAAVlklEQVR4nO1djV/ayNZOMjEkM5NEFA2RISqELSKh9CoiZrlre+3d6m1d9v//Z95zJuFDiW13AYP75ml/rfKRzDxz5nzMnDNRlAIFChQoUKBAgQIFChQoUKBAgQIFChQoUKBAgQIFChQoUOANQMu7ATnA0qHf0HHD0DTNwFeMoFa/uzo6KpfLV716bMNLuo4fQXp0+KCRb4vXj6RjQIMO/9qTo8/9y7DRPt+9uPg34JewUd357WZUsxUNidAs/R/IAUKzLOh/rfxQDb0u54w5jkOIg2CU8WarfXw5uIoNRbd0y9L+kdPFMOzJ/bjhNamg0HnGCacpiISq8qb3rl+OFQPFIe/2rhsadCn4chtGxGQsGXspBYxJDrgKAgGSoRKXOMPh9V1J+UdxADoQJrgS/7njmSrn2F0ccgCZQf6qgmSoqqu6vNvYKweSOPiq5O+NA+a3rkwGjRbj6k+C+7739TEwYEKACv0niISmxCdeS1D3ZykAEhhVd7+WbcV6+91X0BqUytEhqD/ukJ+lABQGKsjhx579z7CQk/45aEFCTfLTHKCmABao3zgJ0KnKuwt/E0aqzexKu+uqDgGl/9PqAERA6kvmM++sZyTq4A0qBcMAT0c34n77L3Q9gwxSvTEUFIW3KA3g6ulG77IpVqEANAM/78dwsTc5I3TLMMpVU6zKgRDNs4nxNn1nzbBv2iYF3281Dpig3eGd8bYomDbW/hSCE0yclThAbWoyXr1Kr/1GmNAUtOmG/WlIV+v+HMTZKUvFiJH3WwAug2haaeARc10cMO68L78lxYimzLD/2BV/xSH4PjiScGW8FSmQQmAYN0Ofro8D5oLzPKzbb0YOsKHld5z+Bdf4hxxIX/uylujbZw7TlvLSC9fX/xmoPy5Jl1GuOEoiUOK2cuHR0uJLvjaTMAen0adEJRh2KSjZsu8QRWwlB/Z1U2yAA0JpeGTXyyf9s+r7arU6vB1UeoGMS/Lu8jLKITM3MBccRkkUtr2Ic4Ew/VbrtNF/jJWtEgS5QxK/d0CNr58D1yWuEJQyQkyECg4k2J6o8Z87Y4s2rnTDsOzfm4SvzSr+BHjzdHxlaPqWGE4NFGK57Tj8VUlQSTfsT4xtWWXRrOCAQ5jzyhxQ4Q8rpS3xIzXlxoP5+soccEapOuzHdmkLJMHQ4h1OXp0DyjtyqaW3DQZCtz//m27AJPwQQDv1zQaEVbnToMdDf7V1oxVoMBnGlkbumvHGI25OJBAC0WW1Z1hWvqIQOMLJjwPCmD+cKDlPh9G5cJy/sK24TnAV/BJq7oGJzKv7GnhqynWX/aXtpA0QEQ0Ma5rV9Poc6FocOmzFtfSVSeBViB5y4gCDhceI5E2BoJ1xILc6c+HAsvtduVmaJweUkmHF0HKKnzStNiR5c4CZXs5lkCQ6vj4FljLyVMw2ypECHADuevdgGvLgQLeUQTdPkzAH3w/ASuXCgT1Wt4SD9lU+awlgGas5eUfPwVuDnDhQemGu7tEcLhkGWh4Os65Uonx9gzlI2MuHA2PQotshByqL7vPRiXa/uYGNlb8F1r22c6BA0ewDwXP1Deag/CyXlUUtOBb5+kdzMFqNc+EgPha5uskLYKIxyYWDentbxEDlrN3LgwK9t1Uc3OXBgdLbLTi42yYOdl+fA1RAd9s0F3Z7r5anlKQDYSYIzIXhtlCgEjMa9Eoyd0t/nfo4zbIMu3azLZGzzHWn3fBg0LMtoGDjK+0yR0w3etftC7qJHKS/BeIQxhzSOr4dlTa/96bpWJTb6x+3BGV0W0ImNSmeJab/y3hUsl9BL8QPx77JKFZhbZEgcIFri9QP+/XNdV1TDJgFlj06uzRVd6FQcxuARXHyX5W2wvuSomwmdU1mpyvBp/DnK/ZyAGGCDz/GG8vSwfrdccRXLNbZLBxVCLN50NvM+iJYBHty1mVia8xBFkAlUGCherWRWlGYCPWqb1LqLuXecL/p52AiuOn7z+9rqjBVQUEej9bMgZ74RZOhKvizjSWTsm64//t/f9+PwFQyinUcTIKC8eRY4jVvJUwjU8X8LT47BwELoAgxORb7wk94BUxNhcuAvXOZoJkwYSgYj8bX17fRxZOyiaRWlAsKJOjrzO7WcEdFi88yUk6YGf42scF9tr94JufQQdN0JdBiY2sXB05i9q4jjYtpmvgqcVQzKXpWTaQFfnb24YbMeQo5AMhjZxzDfe14NO4+n5wcJaSN9bLrFAbN0kpwr6Vp4KrhF7npq2lxCC4rwbFm2MlUGJ5KDTQO3p6D4h+fmlylpuQChrDpw4QjcjMX3L8nH5/BBRoOTrAGUgc9fesvcwDXO5usM4rCgzrsQcTEUs0WOxhgS2S+auQ40DrSOpyh1WqKRRXKhH94cXH4FE2YFyahSITvtaO9vb1v7TDyYRJRwQ+zETWpaN0kul8zJmdLHIA00ubtOtdZDc0yRiHO1eck0LAGQyERhzD+6uX1fWWK+5s/PuwfHy6MEu/cVJ5j0MEKee7TVrtfnsSBbQdxrzL2QDb4/v3Sx9MrO6x5okB8BOGBbv/RWuIAWfBO1jgVMOvmjFDusuczT/RhHKAtRin44oGQdh+mt00rbkqT/30FbZnMCD6cLF88GBIQe+bvXuObmpUEv/bduMt27l9s0eeuehsHJQU/btydc7LUNBCvsCezdNbiLhm68XCQ6R0eniRlbfdnZzugqKhXVix5HIouy5CktxZ8bptMftvcs/WEHfmejssQemnMsbg1rNia5A0PVMLYL+5Qb4SZX7NSJjm75f+6Uh7y7vDy6wRdeCMGDugSB77wxwHoC8VaBwe60quqmXuLF0fyCJi4CgJvgjHblRzo8rQjzUhPczBGVcJSDqwnHKAs22OwJphPg6ZMvq7hKVu63ffPR9Mx1NL6Ni353dKvdmFqmq0BbrEZpW8qEc/bBzqWDct4XtdatAK0p5udlA2t1MBm3LXRHyCETjnQjdnAYbnuY+jO5ECbV7TLQ8RK+6D/u9egWvH0AKlf8QKW0ufDK8WypLgkE0tLhAuPWSh7FLwAfyw7aNx2XfG8feBhUPUssNYiBXDv3ukLxYvtHki9pYzOGVh1xxSSA2hXaVaAh+9b9h5f4AAHf37xyakg/N0ExR9nwOj+vjyBryMH3ZtZ/JccCzG9qmEMWoI4pn+WDPIHcOGft4+Sjkt3K8rqZwjIYTGu/Zc4qONZZ0r53wIdtCkHivL4r0aj2vntDsdUQauyO+MAOhD82ukiOvifJwTvXidl40a5cd5seY1vlUABDsyDkxR/lORBWqXp74MDmP8OFx1jygF93j4GXhdTo0BbOZUXVYpWq6ovcHBax5FWyrvJbGTJXFCUIw/NU/N4YOuydr12im/7Ug4MLagKk6dA+XEPHuXNjElV1kly09sp9zrw/9QhCPGLul46mHoe+FVmik7Syg8wRpmTVWbprMqBjn/vI7E03WYcaNkcyN/dBkgCcmCf8iccLKzCgZfMwjuUA82oeOl9GPXOIQ6YwjxIOdj3+Rzujzlwux+UlR1mmIB6aY8Kmr3N/gMOaHOQcrBnvsSBixzI9S9NqRymW9kkcYinmHOQfDGRoJ+QA+I04pX1gQ6iNDnGU9/+Dgdqsw/fBx1vf/s+B72Eg0nVTLxKkpyXlMGBu8AB/zEH7u5oZdsITgxIKCHOEgc84UBawPJF4gSxqU48wiASetJ8AI2CysxbmAs6cDA9Pg5GHOKkMD35A3SikOuCMgCedypTDlAfHMw5yBoiaFHz08ocgNYHq5B1dRkLtSc6+iCPF3SBA9DVRxdCmOAveEdyb8qaHM850PTgvSuHU0aOoBBIdC+XbEF/3t22CWHgbjkqnXs9/BkHCTEmpe+Tuf7QFNnFxlzwS3tVXxlabA8z9SG0gPpngY7uwOfDRQ50aSwF6LSDcYBes6WVpW30p7bxX7unKS4wliDqNxv9awz47dHtLy2MjxeD7kwOwL1k7+0ZB5ligEFDbXUOtNpx5uUJFSx6wLoyy/69tagPkINjz/PCxgMu8ELUaY/pAgdaqTdD+VKuGoQjW56diI6yUX941wUtvGCNMzlQQVaqsfSa7qMXas7BlwyvVraNIJ7nmYuoDqWdX2sKdjFu+3xBDkBJ9iqPj49X2ECMoJT7XTHnQJ4QmcY/itFvyjj3MpDH66DHZen25KFhip/gAJSp5CC+jDqZFYZEFV5lRQqQg6OLTA5c/3hcN+Tsvzn01UWdqKUubhIxgYZsi7kcaBgcTeNAy/jUMjlMK/LRxpvhN5EZu9dpqT/ggDsOBZ2L97Emn4deJgdEtE5W5QAafH+YGTL6/Xh6ZOavJD0qMZWDpOvJeFta8PmUJ3Hj1DYqs1BYA8c/uVw0jpOzPmRUADrjY9MlWLX1shwg2iOs7cMbliPC1SVhwHBsDRycHGbqxNZ9clSJ3bt0aFrrm9qFdHtahhpBZd8ToMJnHMhAcroDoin9ruwkM7vDSoCa0ZKnfcAXb8E0pJ7ZyxyQ4ZcAF0osPWhnc8A/roODViYHnozNldpD1XFdsigHBi5D4zoAxtClUeQLDGPnHGil+hSTUSdR6KBh6e5+OZA72/IcRmPyngj6Iw6Y6Z09yti09BIH43VwkC0HoGtwNI3atWeCK70oB7oeT2pxCZQFVnpMhjBT5nMBZknwr9M2Ijw9HSaHyeDOgus2d89uYnkWJdpk4+SApq7zdzjgw3IJ5eAlDlx1gxxIdQTWzLBPQpoaslQfWEb519PjMValo+NztMu4OeMABnrqKzMhnP10pLFi0xfiMDyJpS6FC9d/NX/IAa6zyD1xox5uigPAiZ/pf5CDwVVJbmMYH30/OS1vZheOPLnph2/D7P/QSmrjUw7QV2bEBV8RXQPcSsBdFQdP02Ambx3cpYWrduSnNbTZdgGiARadJOcRx5+/ZcYLhPm3a1hdvmll2gXGmuF1SR4K3WubT+RArh8wSsCLlBFTve2SOQfPY2cTjKM6z2dwyft6mojvCsd92S4gBySMS5gcVNvxMp0k4lB/dbugKI9eZskOntfzS0X6iaU9333OAQQL1KsYFm4AGH3nOxzghhyfR4lTow/49l0O0Jp0B/L5BXbfZ9k+ksNbn9bAwVWYLWUwgP5eCdeJjE9NtsSBw6m/H8jVVbjEE//gGQfJTJi6hR0qxqkcON/lAGMrXHWFz9Z3hZmptKAVq/uJGNQfZ88FPDKzEcsthMqTmClZP8BoG37FzQLLPpvvLzznABeSOq3dbioJZN+dbtTY0Xc5cMB0VicyMn6MGM9c6SKOeT5anQOtVOUMtNXzW8iz80/rerJ+kLjTi/oAJ3izL5WmrlQ8ClFNqhNxPZHMN5KF6RzY8UPVlyX0JuPv74zk7KkwnWIvyYFJq0ncOGiS7APbIF6A8H5lEnTjYzfr8hKzdaQlDuTvbmOioUawoDsgKa2EA/APjn+RwOj5nFJwZzHlcXjaarUOvXcVQ3pJRjkyU+aBA1yKec4BF42kjQ9Nl2cKK2FiuIadV924if42B03cHAYOICwwVZ7IAfiJvUlthqtIbQ6kdxlf3Xy6HjzGmGYJFJS+ykyN73IQJm388CIHbvN69XUkWccIc/UH64nZHKh+J0D/BeKqd45LUg6U2b6hDJJuTeDgyT0l7Psh2Ezz+xzM1hNJNgeueVFekQFcU9X00sHTFc6f58AR7SsIf0DF2R86xOXJWpqMpWZQrpvid5k1k/R9uh1w1Wao1s2VOFAZaO3V15WhzSddTBD5HgfniV2gFzM/UX7cYX4/dfqOhpzjnqs+jSinUB669F1tekampiVsKFcQScgEHclBJ8nGLu0vbq2COp1x4JIMncjBPI/XVPjYazBiZupd5AD+lM8T/4Dvlg250Vu+SIbKcdt12T1Q8mDBo2Da/+ml4aePXeqcQeCjy/1V5AhUw6fQXBzySxvzbpTS14VcedNxZhw03cy8YU4vHtfCAAjybdf0v8vBbspB97oeB3Fc7yc5c8BB87+TOICXvkQgvN2H2hKudpjg3Nur1Evp7YLeyWXEFtPiefSlFsdx7fFswRsEDszLlAM/jcqegfAwNtaz926UQ56do35+J5e/7tqpjySa7eHBQRg6iVEDn0C0QnglGg5dfDBRt33cPn6KkMhnFalRu/NhcF+5H3zsnLeSpLXZbRj1wugganuLW+zAAf2aNLDvu0v7YLhPQTCkWlP+QbDfzV67vhjJ4pF6w5w2VnBQVSLZP1AFeP8QEUnAdBIcomVXzJAmKGJqoqPiUfNNcBCa4CtR5+meDqMuxWRHIZ5y0EziIWPM+dKDT2RM2qjpa+LAskehk5mp7j1KW2cPvUOCOYYdghl1Jk29d6HKzEvcNKJMpQLeYosXSY4IdfYdU4ZN8ileLHmUEdC1oP5w10lGKPOh4LTZrSaGr9QBffs8ZsJtruFnRV/TiTmWbn/sqBn7bWrzU2L6apX7W/aqJR3EbH6+GcmsZKN2TAVbahtErjvBOrovoUs/KatgQewHuD0PtsCYeOZSXtQGQVr/xXVLaUYgZFqeqjB1zlf3j2ZAZ/dzxDMOiqThFa4aYhZWvLPqIzj+EtzDPzFBRIOmBbddviwG3G9e22tKRkJoeKMOTsmlG32LDZlTp8XRqxZ5AQe4QGMk++JZhzTxy9VdxAUKMHKKd0B7Lyke0RrXkg9NTl/Y+90M3NZveFdDsStDihwsyigwYpJwpK39ZMW7tpBRwxOPEfye8z+OepPeqP9S3tamcPDnVb1+V9k7X6IetbdoV9b/SBfNKL9zZZL5AuMMTBrveuft9rBLX5kD3tptn59Hvlgyi0SlbPjZ3si5io/HFHzmRdoZ5pubmC7An+6WvwIgngeXA/ympRoazDr4w9hEXReu7Lwnvr/IgTkTC3zwnrq257H8DGS6jiyAeJ4nQ/m7kySXYc2TQUZ7V42uuchBMvI8KaFx1FeteAMHAP1y8Cufy4FoVGzc7FS0jVT4Tb52iU/cjCWVnKoe5/2nJjQKy3+67+82+ShQTQse2jTDad4CEBlbuc6wH2/0CblwbWPUQa94+4ocCYaVrDss2/J8ho1xgOvkSvDnDlikvLu8BDyMvzscxIZ8gODmjk/D/DlwUOObHS8zaTFPOObh8FNNpn9s9Lk1SToZaNvg6LYddZks48tJOSSJrnKvSgiTHrb37uNpEzcPufhrTyrX3uluywePIT9Q8A781sVpePu/eunVz1S1dMUO6kcnDx/3Li938kIUfbu9HpR78qHxr/3MoqRiC29ql4KglBuCUloXJLcmXu8gSSOtu5rlGWr5IXmOmRwVTOl7NQ6UtPPpT/k/PCzdqNueZzYVKFCgQIECBQoUKFCgQIECBQoUKFCgQIECBQoUKFCgQIECBQr8v8P/AZcMF7fO8/LtAAAAAElFTkSuQmCC;" vertex="1" parent="1">
          <mxGeometry x="-46" y="176.72000000000003" width="51.04" height="38.23" as="geometry" />
        </mxCell>
      </root>
    </mxGraphModel>
  </diagram>
</mxfile>
